<svg xmlns="http://www.w3.org/2000/svg" xmlns:svgjs="http://svgjs.com/svgjs" xmlns:xlink="http://www.w3.org/1999/xlink" id="SvgjsSvg1006" width="709" height="537" version="1.1"><defs id="SvgjsDefs1007"><marker id="SvgjsMarker1034" stroke-dasharray="0 0" markerHeight="12" markerUnits="userSpaceOnUse" markerWidth="16" orient="auto" refX="16" refY="6" viewBox="0 0 16 12"><path id="SvgjsPath1035" fill="#323232" stroke="#323232" stroke-width="2" d="M0,2 L14,6 L0,11 L0,2"/></marker><marker id="SvgjsMarker1038" stroke-dasharray="0 0" markerHeight="12" markerUnits="userSpaceOnUse" markerWidth="16" orient="auto" refX="16" refY="6" viewBox="0 0 16 12"><path id="SvgjsPath1039" fill="#323232" stroke="#323232" stroke-width="2" d="M0,2 L14,6 L0,11 L0,2"/></marker><marker id="SvgjsMarker1042" stroke-dasharray="0 0" markerHeight="12" markerUnits="userSpaceOnUse" markerWidth="16" orient="auto" refX="16" refY="6" viewBox="0 0 16 12"><path id="SvgjsPath1043" fill="#323232" stroke="#323232" stroke-width="2" d="M0,2 L14,6 L0,11 L0,2"/></marker><marker id="SvgjsMarker1046" stroke-dasharray="0 0" markerHeight="12" markerUnits="userSpaceOnUse" markerWidth="16" orient="auto" refX="16" refY="6" viewBox="0 0 16 12"><path id="SvgjsPath1047" fill="#323232" stroke="#323232" stroke-width="2" d="M0,2 L14,6 L0,11 L0,2"/></marker><marker id="SvgjsMarker1050" stroke-dasharray="0 0" markerHeight="12" markerUnits="userSpaceOnUse" markerWidth="16" orient="auto" refX="16" refY="6" viewBox="0 0 16 12"><path id="SvgjsPath1051" fill="#323232" stroke="#323232" stroke-width="2" d="M0,2 L14,6 L0,11 L0,2"/></marker><marker id="SvgjsMarker1054" stroke-dasharray="0 0" markerHeight="12" markerUnits="userSpaceOnUse" markerWidth="16" orient="auto" refX="16" refY="6" viewBox="0 0 16 12"><path id="SvgjsPath1055" fill="#323232" stroke="#323232" stroke-width="2" d="M0,2 L14,6 L0,11 L0,2"/></marker><marker id="SvgjsMarker1080" stroke-dasharray="0 0" markerHeight="12" markerUnits="userSpaceOnUse" markerWidth="16" orient="auto" refX="16" refY="6" viewBox="0 0 16 12"><path id="SvgjsPath1081" fill="#323232" stroke="#323232" stroke-width="2" d="M0,2 L14,6 L0,11 L0,2"/></marker></defs><g id="SvgjsG1008" transform="translate(25,24.999980449676514)"><path id="SvgjsPath1009" fill="#0c0" fill-opacity="1" stroke="rgba(50,50,50,1)" stroke-width="2" d="M 0 35C 0 -11.666666666666666 70 -11.666666666666666 70 35C 70 81.66666666666667 0 81.66666666666667 0 35Z"/><g id="SvgjsG1010"><text id="SvgjsText1011" width="50" y="25.55" fill="#323232" align="middle" anchor="middle" family="微软雅黑" font-family="微软雅黑" font-size="13" font-weight="400" opacity="1" size="13" text-anchor="middle" transform="rotate(0)" weight="400"><tspan id="SvgjsTspan1012" x="35" dy="16"><tspan id="SvgjsTspan1013">input</tspan></tspan></text></g></g><g id="SvgjsG1014" transform="translate(267,140.9999804496765)"><path id="SvgjsPath1015" fill="#ff0" fill-opacity="1" stroke="rgba(50,50,50,1)" stroke-width="2" d="M 0 35C 0 -11.666666666666666 70 -11.666666666666666 70 35C 70 81.66666666666667 0 81.66666666666667 0 35Z"/><g id="SvgjsG1016"><text id="SvgjsText1017" width="50" y="25.55" fill="#323232" align="middle" anchor="middle" family="微软雅黑" font-family="微软雅黑" font-size="13" font-weight="400" opacity="1" size="13" text-anchor="middle" transform="rotate(0)" weight="400"><tspan id="SvgjsTspan1018" x="35" dy="16"><tspan id="SvgjsTspan1019">node 1</tspan></tspan></text></g></g><g id="SvgjsG1020" transform="translate(25,293.9999804496765)"><path id="SvgjsPath1021" fill="#ff0" fill-opacity="1" stroke="rgba(50,50,50,1)" stroke-width="2" d="M 0 35C 0 -11.666666666666666 70 -11.666666666666666 70 35C 70 81.66666666666667 0 81.66666666666667 0 35Z"/><g id="SvgjsG1022"><text id="SvgjsText1023" width="50" y="25.55" fill="#323232" align="middle" anchor="middle" family="微软雅黑" font-family="微软雅黑" font-size="13" font-weight="400" opacity="1" size="13" text-anchor="middle" transform="rotate(0)" weight="400"><tspan id="SvgjsTspan1024" x="35" dy="16"><tspan id="SvgjsTspan1025">node 2</tspan></tspan></text></g></g><g id="SvgjsG1026" transform="translate(267,441.9999804496765)"><path id="SvgjsPath1027" fill="#ff0" fill-opacity="1" stroke="rgba(50,50,50,1)" stroke-width="2" d="M 0 35C 0 -11.666666666666666 70 -11.666666666666666 70 35C 70 81.66666666666667 0 81.66666666666667 0 35Z"/><g id="SvgjsG1028"><text id="SvgjsText1029" width="50" y="25.55" fill="#323232" align="middle" anchor="middle" family="微软雅黑" font-family="微软雅黑" font-size="13" font-weight="400" opacity="1" size="13" text-anchor="middle" transform="rotate(0)" weight="400"><tspan id="SvgjsTspan1030" x="35" dy="16"><tspan id="SvgjsTspan1031">node 3</tspan></tspan></text></g></g><g id="SvgjsG1032"><path id="SvgjsPath1033" fill="none" stroke="#323232" stroke-dasharray="8 5" stroke-width="2" marker-end="url(#SvgjsMarker1034)" d="M60 94.99998044967651C 45 172.86665678024292 44 214.86665678024292 60 293.9999804496765"/></g><g id="SvgjsG1036"><path id="SvgjsPath1037" fill="none" stroke="#323232" stroke-dasharray="8 5" stroke-width="2" marker-end="url(#SvgjsMarker1038)" d="M60 94.99998044967651C 74.7485647305657 263.5768467107039 316.7485647305658 273.42311418864915 302 441.9999804496765"/></g><g id="SvgjsG1040"><path id="SvgjsPath1041" fill="none" stroke="#323232" stroke-dasharray="8 5" stroke-width="2" marker-end="url(#SvgjsMarker1042)" d="M302 210.9999804496765C 310.0531906298836 303.04837055335383 310.0531906298836 349.9515903459992 302 441.9999804496765"/></g><g id="SvgjsG1044"><path id="SvgjsPath1045" fill="none" stroke="#323232" stroke-dasharray="8 5" stroke-width="2" marker-end="url(#SvgjsMarker1046)" d="M60 363.9999804496765C 68.86407754147842 465.3168503645069 310.8640775414784 340.68311053484615 302 441.9999804496765"/></g><g id="SvgjsG1048"><path id="SvgjsPath1049" fill="none" stroke="#323232" stroke-dasharray="8 5" stroke-width="2" marker-end="url(#SvgjsMarker1050)" d="M60 94.99998044967651C 68.58773798957196 193.15827483289445 310.587737989572 42.841686066458635 302 140.9999804496765"/></g><g id="SvgjsG1052"><path id="SvgjsPath1053" fill="none" stroke="#323232" stroke-dasharray="8 5" stroke-width="2" marker-end="url(#SvgjsMarker1054)" d="M302 210.9999804496765C 310.9190947616536 312.94570006866127 68.91909476165358 192.05426083069176 60 293.9999804496765"/></g><g id="SvgjsG1056" transform="translate(382,279.8666567802429)"><path id="SvgjsPath1057" fill="#ff0" fill-opacity="1" stroke="rgba(50,50,50,1)" stroke-width="2" d="M 0 26C 0 -8.666666666666666 52 -8.666666666666666 52 26C 52 60.666666666666664 0 60.666666666666664 0 26Z"/></g><g id="SvgjsG1060" transform="translate(455,295.8666567802429)"><path id="SvgjsPath1061" fill="none" stroke="none" d="M 0 0L 220 0L 220 20L 0 20Z"/><g id="SvgjsG1062"><text id="SvgjsText1063" width="220" y="-7.45" fill="#323232" align="middle" anchor="start" family="微软雅黑" font-family="微软雅黑" font-size="13" font-weight="400" opacity="1" size="13" text-anchor="start" transform="rotate(0)" weight="400"><tspan id="SvgjsTspan1064" x="0" dy="16"><tspan id="SvgjsTspan1065">choose none/one/multiple input(s) </tspan></tspan><tspan id="SvgjsTspan1066" x="0" dy="16"><tspan id="SvgjsTspan1067">then add them as output</tspan></tspan></text></g></g><g id="SvgjsG1068" transform="translate(382,210.9999804496765)"><path id="SvgjsPath1069" fill="#0c0" fill-opacity="1" stroke="rgba(50,50,50,1)" stroke-width="2" d="M 0 26C 0 -8.666666666666666 52 -8.666666666666666 52 26C 52 60.666666666666664 0 60.666666666666664 0 26Z"/></g><g id="SvgjsG1072" transform="translate(455,226.9999804496765)"><path id="SvgjsPath1073" fill="none" stroke="none" d="M 0 0L 220 0L 220 20L 0 20Z"/><g id="SvgjsG1074"><text id="SvgjsText1075" width="220" y=".55" fill="#323232" align="middle" anchor="start" family="微软雅黑" font-family="微软雅黑" font-size="13" font-weight="400" opacity="1" size="13" text-anchor="start" transform="rotate(0)" weight="400"><tspan id="SvgjsTspan1076" x="0" dy="16"><tspan id="SvgjsTspan1077">the output of the previous cell</tspan></tspan></text></g></g><g id="SvgjsG1078"><path id="SvgjsPath1079" fill="none" stroke="#323232" stroke-dasharray="8 5" stroke-width="2" marker-end="url(#SvgjsMarker1080)" d="M376 374.8666567802429L404.5 374.8666567802429L404.5 374.8666567802429L433 374.8666567802429"/></g><g id="SvgjsG1082" transform="translate(463,363.9999804496765)"><path id="SvgjsPath1083" fill="none" stroke="none" d="M 0 0L 220 0L 220 20L 0 20Z"/><g id="SvgjsG1084"><text id="SvgjsText1085" width="220" y="-14.95" fill="#323232" align="middle" anchor="start" family="微软雅黑" font-family="微软雅黑" font-size="13" font-weight="400" opacity="1" size="13" text-anchor="start" transform="rotate(0)" weight="400"><tspan id="SvgjsTspan1086" x="0" dy="16"><tspan id="SvgjsTspan1087">choose one operation from </tspan></tspan><tspan id="SvgjsTspan1088" x="0" dy="16"><tspan id="SvgjsTspan1089">MaxPool, AvgPool,, Conv1x1, </tspan></tspan><tspan id="SvgjsTspan1090" x="0" dy="16"><tspan id="SvgjsTspan1091">Conv3x3, SkipConnect, Zeroize</tspan></tspan></text></g></g></svg>