<svg xmlns="http://www.w3.org/2000/svg" xmlns:svgjs="http://svgjs.com/svgjs" xmlns:xlink="http://www.w3.org/1999/xlink" id="SvgjsSvg1006" width="837.08" height="917.693" version="1.1"><defs id="SvgjsDefs1007"><marker id="SvgjsMarker1022" stroke-dasharray="0 0" markerHeight="12" markerUnits="userSpaceOnUse" markerWidth="16" orient="auto" refX="16" refY="6" viewBox="0 0 16 12"><path id="SvgjsPath1023" fill="#323232" stroke="#323232" stroke-width="2" d="M0,2 L14,6 L0,11 L0,2"/></marker><marker id="SvgjsMarker1036" stroke-dasharray="0 0" markerHeight="12" markerUnits="userSpaceOnUse" markerWidth="16" orient="auto" refX="16" refY="6" viewBox="0 0 16 12"><path id="SvgjsPath1037" fill="#323232" stroke="#323232" stroke-width="2" d="M0,2 L14,6 L0,11 L0,2"/></marker><marker id="SvgjsMarker1040" stroke-dasharray="0 0" markerHeight="12" markerUnits="userSpaceOnUse" markerWidth="16" orient="auto" refX="16" refY="6" viewBox="0 0 16 12"><path id="SvgjsPath1041" fill="#323232" stroke="#323232" stroke-width="2" d="M0,2 L14,6 L0,11 L0,2"/></marker><marker id="SvgjsMarker1044" stroke-dasharray="0 0" markerHeight="12" markerUnits="userSpaceOnUse" markerWidth="16" orient="auto" refX="16" refY="6" viewBox="0 0 16 12"><path id="SvgjsPath1045" fill="#323232" stroke="#323232" stroke-width="2" d="M0,2 L14,6 L0,11 L0,2"/></marker><marker id="SvgjsMarker1053" stroke-dasharray="0 0" markerHeight="12" markerUnits="userSpaceOnUse" markerWidth="16" orient="auto" refX="16" refY="6" viewBox="0 0 16 12"><path id="SvgjsPath1054" fill="#323232" stroke="#323232" stroke-width="2" d="M0,2 L14,6 L0,11 L0,2"/></marker><marker id="SvgjsMarker1089" stroke-dasharray="0 0" markerHeight="12" markerUnits="userSpaceOnUse" markerWidth="16" orient="auto" refX="16" refY="6" viewBox="0 0 16 12"><path id="SvgjsPath1090" fill="#323232" stroke="#323232" stroke-width="2" d="M0,2 L14,6 L0,11 L0,2"/></marker><marker id="SvgjsMarker1141" stroke-dasharray="0 0" markerHeight="12" markerUnits="userSpaceOnUse" markerWidth="16" orient="auto" refX="16" refY="6" viewBox="0 0 16 12"><path id="SvgjsPath1142" fill="#323232" stroke="#323232" stroke-width="2" d="M0,2 L14,6 L0,11 L0,2"/></marker><marker id="SvgjsMarker1145" stroke-dasharray="0 0" markerHeight="12" markerUnits="userSpaceOnUse" markerWidth="16" orient="auto" refX="16" refY="6" viewBox="0 0 16 12"><path id="SvgjsPath1146" fill="#323232" stroke="#323232" stroke-width="2" d="M0,2 L14,6 L0,11 L0,2"/></marker><marker id="SvgjsMarker1149" stroke-dasharray="0 0" markerHeight="12" markerUnits="userSpaceOnUse" markerWidth="16" orient="auto" refX="16" refY="6" viewBox="0 0 16 12"><path id="SvgjsPath1150" fill="#323232" stroke="#323232" stroke-width="2" d="M0,2 L14,6 L0,11 L0,2"/></marker><marker id="SvgjsMarker1153" stroke-dasharray="0 0" markerHeight="12" markerUnits="userSpaceOnUse" markerWidth="16" orient="auto" refX="16" refY="6" viewBox="0 0 16 12"><path id="SvgjsPath1154" fill="#323232" stroke="#323232" stroke-width="2" d="M0,2 L14,6 L0,11 L0,2"/></marker><marker id="SvgjsMarker1157" stroke-dasharray="0 0" markerHeight="12" markerUnits="userSpaceOnUse" markerWidth="16" orient="auto" refX="16" refY="6" viewBox="0 0 16 12"><path id="SvgjsPath1158" fill="#323232" stroke="#323232" stroke-width="2" d="M0,2 L14,6 L0,11 L0,2"/></marker><marker id="SvgjsMarker1161" stroke-dasharray="0 0" markerHeight="12" markerUnits="userSpaceOnUse" markerWidth="16" orient="auto" refX="16" refY="6" viewBox="0 0 16 12"><path id="SvgjsPath1162" fill="#323232" stroke="#323232" stroke-width="2" d="M0,2 L14,6 L0,11 L0,2"/></marker><marker id="SvgjsMarker1165" stroke-dasharray="0 0" markerHeight="12" markerUnits="userSpaceOnUse" markerWidth="16" orient="auto" refX="16" refY="6" viewBox="0 0 16 12"><path id="SvgjsPath1166" fill="#323232" stroke="#323232" stroke-width="2" d="M0,2 L14,6 L0,11 L0,2"/></marker><marker id="SvgjsMarker1169" stroke-dasharray="0 0" markerHeight="12" markerUnits="userSpaceOnUse" markerWidth="16" orient="auto" refX="16" refY="6" viewBox="0 0 16 12"><path id="SvgjsPath1170" fill="#323232" stroke="#323232" stroke-width="2" d="M0,2 L14,6 L0,11 L0,2"/></marker><marker id="SvgjsMarker1173" stroke-dasharray="0 0" markerHeight="12" markerUnits="userSpaceOnUse" markerWidth="16" orient="auto" refX="16" refY="6" viewBox="0 0 16 12"><path id="SvgjsPath1174" fill="#323232" stroke="#323232" stroke-width="2" d="M0,2 L14,6 L0,11 L0,2"/></marker><marker id="SvgjsMarker1177" stroke-dasharray="0 0" markerHeight="12" markerUnits="userSpaceOnUse" markerWidth="16" orient="auto" refX="16" refY="6" viewBox="0 0 16 12"><path id="SvgjsPath1178" fill="#323232" stroke="#323232" stroke-width="2" d="M0,2 L14,6 L0,11 L0,2"/></marker><marker id="SvgjsMarker1181" stroke-dasharray="0 0" markerHeight="12" markerUnits="userSpaceOnUse" markerWidth="16" orient="auto" refX="16" refY="6" viewBox="0 0 16 12"><path id="SvgjsPath1182" fill="#323232" stroke="#323232" stroke-width="2" d="M0,2 L14,6 L0,11 L0,2"/></marker><marker id="SvgjsMarker1191" stroke-dasharray="0 0" markerHeight="12" markerUnits="userSpaceOnUse" markerWidth="16" orient="auto" refX="16" refY="6" viewBox="0 0 16 12"><path id="SvgjsPath1192" fill="#323232" stroke="#323232" stroke-width="2" d="M0,2 L14,6 L0,11 L0,2"/></marker><marker id="SvgjsMarker1205" stroke-dasharray="0 0" markerHeight="12" markerUnits="userSpaceOnUse" markerWidth="16" orient="auto" refX="16" refY="6" viewBox="0 0 16 12"><path id="SvgjsPath1206" fill="#323232" stroke="#323232" stroke-width="2" d="M0,2 L14,6 L0,11 L0,2"/></marker><marker id="SvgjsMarker1225" stroke-dasharray="0 0" markerHeight="12" markerUnits="userSpaceOnUse" markerWidth="16" orient="auto" refX="16" refY="6" viewBox="0 0 16 12"><path id="SvgjsPath1226" fill="#323232" stroke="#323232" stroke-width="2" d="M0,2 L14,6 L0,11 L0,2"/></marker><marker id="SvgjsMarker1237" stroke-dasharray="0 0" markerHeight="12" markerUnits="userSpaceOnUse" markerWidth="16" orient="auto" refX="16" refY="6" viewBox="0 0 16 12"><path id="SvgjsPath1238" fill="#323232" stroke="#323232" stroke-width="2" d="M0,2 L14,6 L0,11 L0,2"/></marker><marker id="SvgjsMarker1241" stroke-dasharray="0 0" markerHeight="12" markerUnits="userSpaceOnUse" markerWidth="16" orient="auto" refX="16" refY="6" viewBox="0 0 16 12"><path id="SvgjsPath1242" fill="#323232" stroke="#323232" stroke-width="2" d="M0,2 L14,6 L0,11 L0,2"/></marker></defs><g id="SvgjsG1008" transform="translate(74.002685546875,148.85643214220443)"><path id="SvgjsPath1009" fill="#fff" fill-opacity="1" stroke="rgba(50,50,50,1)" stroke-width="2" d="M 0 133.86033519553072C 0 -44.62011173184357 267.72067039106145 -44.62011173184357 267.72067039106145 133.86033519553072C 267.72067039106145 312.340782122905 0 312.340782122905 0 133.86033519553072Z"/></g><g id="SvgjsG1012" transform="translate(131.37140063067386,187.10224219807034)"><path id="SvgjsPath1013" fill="#ff0" fill-opacity="1" stroke="rgba(50,50,50,1)" stroke-width="2" d="M 0 31.871508379888265C 0 -10.623836126629422 63.74301675977653 -10.623836126629422 63.74301675977653 31.871508379888265C 63.74301675977653 74.36685288640595 0 74.36685288640595 0 31.871508379888265Z"/></g><g id="SvgjsG1016" transform="translate(209.68424979268502,311.8564321422044)"><path id="SvgjsPath1017" fill="#c9f" fill-opacity="1" stroke="rgba(50,50,50,1)" stroke-width="2" d="M 0 31.871508379888265C 0 -10.623836126629422 63.74301675977653 -10.623836126629422 63.74301675977653 31.871508379888265C 63.74301675977653 74.36685288640595 0 74.36685288640595 0 31.871508379888265Z"/></g><g id="SvgjsG1020"><path id="SvgjsPath1021" fill="none" stroke="#323232" stroke-dasharray="10 5 3 5" stroke-width="2" marker-end="url(#SvgjsMarker1022)" d="M109.51665202732192 96.04078968410386C 131.00715482061798 132.46537068969045 142.81869506835938 152.7813491821289 163.24290901056213 187.10224219807034"/></g><g id="SvgjsG1024" transform="translate(301.6563168317912,25.923471248349685)"><path id="SvgjsPath1025" fill="#0c6" fill-opacity="1" stroke="rgba(50,50,50,1)" stroke-width="2" d="M 0 35.05865921787709C 0 -11.686219739292364 70.11731843575419 -11.686219739292364 70.11731843575419 35.05865921787709C 70.11731843575419 81.80353817504655 0 81.80353817504655 0 35.05865921787709Z"/><g id="SvgjsG1026"><text id="SvgjsText1027" width="51" y="10.109" fill="#323232" align="middle" anchor="middle" family="微软雅黑" font-family="微软雅黑" font-size="13" font-weight="400" opacity="1" size="13" text-anchor="middle" transform="rotate(0)" weight="400"><tspan id="SvgjsTspan1028" x="35.5" dy="16"><tspan id="SvgjsTspan1029">Layer </tspan></tspan><tspan id="SvgjsTspan1030" x="35.5" dy="16"><tspan id="SvgjsTspan1031">N-1&apos;s</tspan></tspan><tspan id="SvgjsTspan1032" x="35.5" dy="16"><tspan id="SvgjsTspan1033">output</tspan></tspan></text></g></g><g id="SvgjsG1034"><path id="SvgjsPath1035" fill="none" stroke="#323232" stroke-dasharray="8 5" stroke-width="2" marker-end="url(#SvgjsMarker1036)" d="M336.7149760496683 96.04078968410386C 344.9377251996825 190.02724254125366 249.77850732258764 217.86997928505463 241.5557581725733 311.8564321422044"/></g><g id="SvgjsG1038"><path id="SvgjsPath1039" fill="none" stroke="#323232" stroke-dasharray="10 5 3 5" stroke-width="2" marker-end="url(#SvgjsMarker1040)" d="M132.28201515581355 94.21956063382453C 144.66637269771297 131.37263325952284 152.81869506835938 149.7813491821289 163.24290901056213 187.10224219807034"/></g><g id="SvgjsG1042"><path id="SvgjsPath1043" fill="none" stroke="#323232" stroke-dasharray="10 5 3 5" stroke-width="2" marker-end="url(#SvgjsMarker1044)" d="M163.24290901056213 93.30894610868489C 163.24290901056213 130.82626454443908 166.51275876473073 149.7276884857523 163.24290901056213 187.10224219807034"/></g><g id="SvgjsG1046" transform="matrix(6.123233995736766e-17,1,-1,6.123233995736766e-17,175.99151428052167,25.012857064188523)"><path id="SvgjsPath1047" fill="none" stroke="rgba(50,50,50,1)" stroke-width="2" d="M 61.9217877094972 0Q 55.729608938547486 0 55.729608938547486 6.73854748603352L 55.729608938547486 26.95418994413408Q 55.729608938547486 33.6927374301676 39.9217877094972 33.6927374301676Q 55.729608938547486 33.6927374301676 55.729608938547486 40.431284916201115L 55.729608938547486 60.646927374301676Q 55.729608938547486 67.3854748603352 61.9217877094972 67.3854748603352"/><path id="SvgjsPath1048" fill="none" stroke="none" d="M 0 0L 61.9217877094972 0L 61.9217877094972 67.3854748603352L 0 67.3854748603352Z"/></g><g id="SvgjsG1051"><path id="SvgjsPath1052" fill="none" stroke="#323232" stroke-dasharray="8 5" stroke-width="2" marker-end="url(#SvgjsMarker1053)" d="M427.321121301065 258.1301751589642L472.8518475580481 258.1301751589642"/></g><g id="SvgjsG1055" transform="translate(489.24290901056213,239.00727013103125)"><path id="SvgjsPath1056" fill="none" stroke="none" d="M 0 0L 236.75977653631284 0L 236.75977653631284 46.44134078212291L 0 46.44134078212291Z"/><g id="SvgjsG1057"><text id="SvgjsText1058" width="237" y="-1.729" fill="#323232" align="middle" anchor="start" family="微软雅黑" font-family="微软雅黑" font-size="13" font-weight="400" opacity="1" size="13" text-anchor="start" transform="rotate(0)" weight="400"><tspan id="SvgjsTspan1059" x="0" dy="16"><tspan id="SvgjsTspan1060">choose an operation from: MaxPool, </tspan></tspan><tspan id="SvgjsTspan1061" x="0" dy="16"><tspan id="SvgjsTspan1062">AvgPool, SepConvBN3x3, SepConvBN</tspan></tspan><tspan id="SvgjsTspan1063" x="0" dy="16"><tspan id="SvgjsTspan1064">5x5 and SkipConnect</tspan></tspan></text></g></g><g id="SvgjsG1065" transform="translate(424.58927772564596,293.6441416394111)"><path id="SvgjsPath1066" fill="#ff0" fill-opacity="1" stroke="rgba(50,50,50,1)" stroke-width="2" d="M 0 25.952513966480446C 0 -8.650837988826815 51.90502793296089 -8.650837988826815 51.90502793296089 25.952513966480446C 51.90502793296089 60.555865921787706 0 60.555865921787706 0 25.952513966480446Z"/></g><g id="SvgjsG1069" transform="translate(489.24290901056213,301.3843651030983)"><path id="SvgjsPath1070" fill="none" stroke="none" d="M 0 0L 236.75977653631284 0L 236.75977653631284 36.42458100558659L 0 36.42458100558659Z"/><g id="SvgjsG1071"><text id="SvgjsText1072" width="237" y="8.762" fill="#323232" align="middle" anchor="start" family="微软雅黑" font-family="微软雅黑" font-size="13" font-weight="400" opacity="1" size="13" text-anchor="start" transform="rotate(0)" weight="400"><tspan id="SvgjsTspan1073" x="0" dy="16"><tspan id="SvgjsTspan1074">accept none/one/multiple input(s)</tspan></tspan></text></g></g><g id="SvgjsG1075" transform="translate(425.9551995133554,367.40391817572396)"><path id="SvgjsPath1076" fill="#c9f" fill-opacity="1" stroke="rgba(50,50,50,1)" stroke-width="2" d="M 0 24.58659217877095C 0 -8.195530726256983 49.1731843575419 -8.195530726256983 49.1731843575419 24.58659217877095C 49.1731843575419 57.36871508379888 0 57.36871508379888 0 24.58659217877095Z"/></g><g id="SvgjsG1079" transform="translate(489.24290901056213,373.7782198517016)"><path id="SvgjsPath1080" fill="none" stroke="none" d="M 0 0L 236.75977653631284 0L 236.75977653631284 36.42458100558659L 0 36.42458100558659Z"/><g id="SvgjsG1081"><text id="SvgjsText1082" width="237" y=".762" fill="#323232" align="middle" anchor="start" family="微软雅黑" font-family="微软雅黑" font-size="13" font-weight="400" opacity="1" size="13" text-anchor="start" transform="rotate(0)" weight="400"><tspan id="SvgjsTspan1083" x="0" dy="16"><tspan id="SvgjsTspan1084">add all input as the output of this </tspan></tspan><tspan id="SvgjsTspan1085" x="0" dy="16"><tspan id="SvgjsTspan1086">layer</tspan></tspan></text></g></g><g id="SvgjsG1087"><path id="SvgjsPath1088" fill="none" stroke="#323232" stroke-dasharray="10 5 3 5" stroke-width="2" marker-end="url(#SvgjsMarker1089)" d="M426.41050677592534 208.04637627628261L471.9412330329085 208.04637627628261"/></g><g id="SvgjsG1091" transform="translate(489.24290901056213,184.37039862265135)"><path id="SvgjsPath1092" fill="none" stroke="none" d="M 0 0L 205.79888268156424 0L 205.79888268156424 43.70949720670391L 0 43.70949720670391Z"/><g id="SvgjsG1093"><text id="SvgjsText1094" width="206" y="4.405" fill="#323232" align="middle" anchor="start" family="微软雅黑" font-family="微软雅黑" font-size="13" font-weight="400" opacity="1" size="13" text-anchor="start" transform="rotate(0)" weight="400"><tspan id="SvgjsTspan1095" x="0" dy="16"><tspan id="SvgjsTspan1096">(suppose this layer is the Nth </tspan></tspan><tspan id="SvgjsTspan1097" x="0" dy="16"><tspan id="SvgjsTspan1098">layer) outputs of all N-2 layers</tspan></tspan></text></g></g><g id="SvgjsG1099" transform="translate(100.41050677592528,33.208387449467)"><path id="SvgjsPath1100" fill="none" stroke="none" d="M 0 0L 109.27374301675977 0L 109.27374301675977 36.42458100558659L 0 36.42458100558659Z"/><g id="SvgjsG1101"><text id="SvgjsText1102" width="110" y="8.762" fill="#323232" align="middle" anchor="middle" family="微软雅黑" font-family="微软雅黑" font-size="13" font-weight="400" opacity="1" size="13" text-anchor="middle" transform="rotate(0)" weight="400"><tspan id="SvgjsTspan1103" x="55" dy="16"><tspan id="SvgjsTspan1104">x (N-2)</tspan></tspan></text></g></g><g id="SvgjsG1105" transform="translate(150.49430565860683,439.196758792387)"><path id="SvgjsPath1106" fill="none" stroke="none" d="M 0 0L 109.27374301675977 0L 109.27374301675977 36.42458100558659L 0 36.42458100558659Z"/><g id="SvgjsG1107"><text id="SvgjsText1108" width="110" y="8.762" fill="#323232" align="middle" anchor="middle" family="微软雅黑" font-family="微软雅黑" font-size="13" font-weight="400" opacity="1" size="13" text-anchor="middle" transform="rotate(0)" weight="400"><tspan id="SvgjsTspan1109" x="55" dy="16"><tspan id="SvgjsTspan1110">ENASMacroLayer</tspan></tspan></text></g></g><g id="SvgjsG1111" transform="translate(25.002685546875,608.5613342285156)"><path id="SvgjsPath1112" fill="#0c6" fill-opacity="1" stroke="rgba(50,50,50,1)" stroke-width="2" d="M 0 0L 67 0L 67 46.9L 0 46.9Z"/><g id="SvgjsG1113"><text id="SvgjsText1114" width="47" y="14" fill="#323232" align="middle" anchor="middle" family="微软雅黑" font-family="微软雅黑" font-size="13" font-weight="400" opacity="1" size="13" text-anchor="middle" transform="rotate(0)" weight="400"><tspan id="SvgjsTspan1115" x="33.5" dy="16"><tspan id="SvgjsTspan1116">input</tspan></tspan></text></g></g><g id="SvgjsG1117" transform="translate(145.49430565860683,601.7863342285157)"><path id="SvgjsPath1118" fill="#0ff" fill-opacity="1" stroke="rgba(50,50,50,1)" stroke-width="2" d="M 0 29.224999999999966C 0 -9.741666666666655 59.84357541899442 -9.741666666666655 59.84357541899442 29.224999999999966C 59.84357541899442 68.19166666666659 0 68.19166666666659 0 29.224999999999966Z"/></g><g id="SvgjsG1121" transform="translate(264.49430565860683,602.7863342285157)"><path id="SvgjsPath1122" fill="#0ff" fill-opacity="1" stroke="rgba(50,50,50,1)" stroke-width="2" d="M 0 29.224999999999966C 0 -9.741666666666655 59.84357541899442 -9.741666666666655 59.84357541899442 29.224999999999966C 59.84357541899442 68.19166666666659 0 68.19166666666659 0 29.224999999999966Z"/></g><g id="SvgjsG1125" transform="translate(384.87978051894197,602.7863342285157)"><path id="SvgjsPath1126" fill="#0ff" fill-opacity="1" stroke="rgba(50,50,50,1)" stroke-width="2" d="M 0 29.224999999999966C 0 -9.741666666666655 59.84357541899442 -9.741666666666655 59.84357541899442 29.224999999999966C 59.84357541899442 68.19166666666659 0 68.19166666666659 0 29.224999999999966Z"/></g><g id="SvgjsG1129" transform="translate(504.87978051894197,603.7863342285157)"><path id="SvgjsPath1130" fill="#0ff" fill-opacity="1" stroke="rgba(50,50,50,1)" stroke-width="2" d="M 0 29.224999999999966C 0 -9.741666666666655 59.84357541899442 -9.741666666666655 59.84357541899442 29.224999999999966C 59.84357541899442 68.19166666666659 0 68.19166666666659 0 29.224999999999966Z"/></g><g id="SvgjsG1133" transform="translate(621.002685546875,610.5613342285156)"><path id="SvgjsPath1134" fill="#c9f" fill-opacity="1" stroke="rgba(50,50,50,1)" stroke-width="2" d="M 0 0L 83 0L 83 44.899999999999864L 0 44.899999999999864Z"/><g id="SvgjsG1135"><text id="SvgjsText1136" width="63" y="13" fill="#323232" align="middle" anchor="middle" family="微软雅黑" font-family="微软雅黑" font-size="13" font-weight="400" opacity="1" size="13" text-anchor="middle" transform="rotate(0)" weight="400"><tspan id="SvgjsTspan1137" x="41.5" dy="16"><tspan id="SvgjsTspan1138">softmax</tspan></tspan></text></g></g><g id="SvgjsG1139"><path id="SvgjsPath1140" fill="none" stroke="#323232" stroke-width="2" marker-end="url(#SvgjsMarker1141)" d="M92.002685546875 632.0113342285157L145.49430565860683 631.0113342285156"/></g><g id="SvgjsG1143"><path id="SvgjsPath1144" fill="none" stroke="#323232" stroke-dasharray="8 5" stroke-width="2" marker-end="url(#SvgjsMarker1145)" d="M205.33788107760125 631.0113342285156L264.49430565860683 632.0113342285156"/></g><g id="SvgjsG1147"><path id="SvgjsPath1148" fill="none" stroke="#323232" stroke-dasharray="8 5" stroke-width="2" marker-end="url(#SvgjsMarker1149)" d="M324.3378810776012 632.0113342285156L384.87978051894197 632.0113342285156"/></g><g id="SvgjsG1151"><path id="SvgjsPath1152" fill="none" stroke="#323232" stroke-dasharray="8 5" stroke-width="2" marker-end="url(#SvgjsMarker1153)" d="M444.7233559379365 632.0113342285156L504.87978051894197 633.0113342285156"/></g><g id="SvgjsG1155"><path id="SvgjsPath1156" fill="none" stroke="#323232" stroke-width="2" marker-end="url(#SvgjsMarker1157)" d="M564.7233559379364 633.0113342285156L621.002685546875 633.0113342285156"/></g><g id="SvgjsG1159"><path id="SvgjsPath1160" fill="none" stroke="#323232" stroke-dasharray="10 5 3 5" stroke-width="2" marker-end="url(#SvgjsMarker1161)" d="M205.33788107760125 631.0113342285156C 232.002685546875 616.6213397979736 235.002685546875 606.6213397979736 264.49430565860683 632.0113342285156"/></g><g id="SvgjsG1163"><path id="SvgjsPath1164" fill="none" stroke="#323232" stroke-dasharray="10 5 3 5" stroke-width="2" marker-end="url(#SvgjsMarker1165)" d="M205.33788107760125 631.0113342285156C 272.002685546875 564.6213397979736 290.002685546875 572.6213397979736 384.87978051894197 632.0113342285156"/></g><g id="SvgjsG1167"><path id="SvgjsPath1168" fill="none" stroke="#323232" stroke-dasharray="10 5 3 5" stroke-width="2" marker-end="url(#SvgjsMarker1169)" d="M205.33788107760125 631.0113342285156C 285.002685546875 531.6213397979736 416.002685546875 545.6213397979736 504.87978051894197 633.0113342285156"/></g><g id="SvgjsG1171"><path id="SvgjsPath1172" fill="none" stroke="#323232" stroke-dasharray="10 5 3 5" stroke-width="2" marker-end="url(#SvgjsMarker1173)" d="M324.3378810776012 632.0113342285156C 353.002685546875 653.6213397979736 361.002685546875 652.6213397979736 384.87978051894197 632.0113342285156"/></g><g id="SvgjsG1175"><path id="SvgjsPath1176" fill="none" stroke="#323232" stroke-dasharray="10 5 3 5" stroke-width="2" marker-end="url(#SvgjsMarker1177)" d="M324.3378810776012 632.0113342285156C 393.002685546875 696.6213397979736 435.002685546875 690.6213397979736 504.87978051894197 633.0113342285156"/></g><g id="SvgjsG1179"><path id="SvgjsPath1180" fill="none" stroke="#323232" stroke-dasharray="10 5 3 5" stroke-width="2" marker-end="url(#SvgjsMarker1181)" d="M444.7233559379365 632.0113342285156C 465.002685546875 613.6213397979736 475.002685546875 615.6213397979736 504.87978051894197 633.0113342285156"/></g><g id="SvgjsG1183" transform="translate(254.42726655246156,734.6213397979736)"><path id="SvgjsPath1184" fill="none" stroke="none" d="M 0 0L 177.28770949720672 0L 177.28770949720672 43L 0 43Z"/><g id="SvgjsG1185"><text id="SvgjsText1186" width="178" y="12.05" fill="#323232" align="middle" anchor="middle" family="微软雅黑" font-family="微软雅黑" font-size="13" font-weight="400" opacity="1" size="13" text-anchor="middle" transform="rotate(0)" weight="400"><tspan id="SvgjsTspan1187" x="89" dy="16"><tspan id="SvgjsTspan1188">GeneralModel</tspan></tspan></text></g></g><g id="SvgjsG1189"><path id="SvgjsPath1190" fill="none" stroke="#323232" stroke-dasharray="8 5" stroke-width="2" marker-end="url(#SvgjsMarker1191)" d="M513.16190342397 711.1301751589642L558.6926296809531 711.1301751589642"/></g><g id="SvgjsG1193" transform="translate(575.0836911334671,692.0072701310312)"><path id="SvgjsPath1194" fill="none" stroke="none" d="M 0 0L 236.75977653631284 0L 236.75977653631284 46.44134078212291L 0 46.44134078212291Z"/><g id="SvgjsG1195"><text id="SvgjsText1196" width="237" y="-1.729" fill="#323232" align="middle" anchor="start" family="微软雅黑" font-family="微软雅黑" font-size="13" font-weight="400" opacity="1" size="13" text-anchor="start" transform="rotate(0)" weight="400"><tspan id="SvgjsTspan1197" x="0" dy="16"><tspan id="SvgjsTspan1198">choose an operation from: MaxPool, </tspan></tspan><tspan id="SvgjsTspan1199" x="0" dy="16"><tspan id="SvgjsTspan1200">AvgPool, SepConvBN3x3, SepConvBN</tspan></tspan><tspan id="SvgjsTspan1201" x="0" dy="16"><tspan id="SvgjsTspan1202">5x5 and SkipConnect</tspan></tspan></text></g></g><g id="SvgjsG1203"><path id="SvgjsPath1204" fill="none" stroke="#323232" stroke-width="2" marker-end="url(#SvgjsMarker1205)" d="M512.002685546875 764.0113342285156L558.002685546875 764.0113342285156"/></g><g id="SvgjsG1207" transform="translate(575.0836911334671,746.4613342285156)"><path id="SvgjsPath1208" fill="none" stroke="none" d="M 0 0L 206.91899441340786 0L 206.91899441340786 30L 0 30Z"/><g id="SvgjsG1209"><text id="SvgjsText1210" width="207" y="5.55" fill="#323232" align="middle" anchor="start" family="微软雅黑" font-family="微软雅黑" font-size="13" font-weight="400" opacity="1" size="13" text-anchor="start" transform="rotate(0)" weight="400"><tspan id="SvgjsTspan1211" x="0" dy="16"><tspan id="SvgjsTspan1212">pass tensor without operation</tspan></tspan></text></g></g><g id="SvgjsG1213" transform="translate(515.2401157144727,840.7024446654088)"><path id="SvgjsPath1214" fill="#0ff" fill-opacity="1" stroke="rgba(50,50,50,1)" stroke-width="2" d="M 0 25.766944781553388C 0 -8.588981593851129 52.76256983240228 -8.588981593851129 52.76256983240228 25.766944781553388C 52.76256983240228 60.122871156957906 0 60.122871156957906 0 25.766944781553388Z"/></g><g id="SvgjsG1217" transform="translate(586.4943056586069,848.257098944169)"><path id="SvgjsPath1218" fill="none" stroke="none" d="M 0 0L 109.27374301675977 0L 109.27374301675977 36.42458100558659L 0 36.42458100558659Z"/><g id="SvgjsG1219"><text id="SvgjsText1220" width="110" y="8.762" fill="#323232" align="middle" anchor="middle" family="微软雅黑" font-family="微软雅黑" font-size="13" font-weight="400" opacity="1" size="13" text-anchor="middle" transform="rotate(0)" weight="400"><tspan id="SvgjsTspan1221" x="55" dy="16"><tspan id="SvgjsTspan1222">ENASMacroLayer</tspan></tspan></text></g></g><g id="SvgjsG1223"><path id="SvgjsPath1224" fill="none" stroke="#323232" stroke-dasharray="10 5 3 5" stroke-width="2" marker-end="url(#SvgjsMarker1225)" d="M515.2401157144727 810.0463762762827L560.7708419714559 810.0463762762827"/></g><g id="SvgjsG1227" transform="translate(578.0725179491095,786.3703986226515)"><path id="SvgjsPath1228" fill="none" stroke="none" d="M 0 0L 205.79888268156424 0L 205.79888268156424 43.70949720670391L 0 43.70949720670391Z"/><g id="SvgjsG1229"><text id="SvgjsText1230" width="206" y="4.405" fill="#323232" align="middle" anchor="start" family="微软雅黑" font-family="微软雅黑" font-size="13" font-weight="400" opacity="1" size="13" text-anchor="start" transform="rotate(0)" weight="400"><tspan id="SvgjsTspan1231" x="0" dy="16"><tspan id="SvgjsTspan1232">(suppose this layer is the Nth </tspan></tspan><tspan id="SvgjsTspan1233" x="0" dy="16"><tspan id="SvgjsTspan1234">layer) outputs of all N-1 layers</tspan></tspan></text></g></g><g id="SvgjsG1235"><path id="SvgjsPath1236" fill="none" stroke="#323232" stroke-width="2" marker-end="url(#SvgjsMarker1237)" d="M163.24290901056213 250.84525895784685C 166.7038178979269 290.40362855551774 245.01666705993807 272.29806254453354 241.5557581725733 311.8564321422044"/></g><g id="SvgjsG1239"><path id="SvgjsPath1240" fill="none" stroke="#323232" stroke-width="2" marker-end="url(#SvgjsMarker1241)" d="M424.41050677592534 163.04637627628261L469.9412330329085 163.04637627628261"/></g><g id="SvgjsG1243" transform="translate(489.24290901056213,136.37039862265135)"><path id="SvgjsPath1244" fill="none" stroke="none" d="M 0 0L 205.79888268156424 0L 205.79888268156424 43.70949720670391L 0 43.70949720670391Z"/><g id="SvgjsG1245"><text id="SvgjsText1246" width="206" y="4.405" fill="#323232" align="middle" anchor="start" family="微软雅黑" font-family="微软雅黑" font-size="13" font-weight="400" opacity="1" size="13" text-anchor="start" transform="rotate(0)" weight="400"><tspan id="SvgjsTspan1247" x="0" dy="16"><tspan id="SvgjsTspan1248">pass the tensor input directly to </tspan></tspan><tspan id="SvgjsTspan1249" x="0" dy="16"><tspan id="SvgjsTspan1250">the next node</tspan></tspan></text></g></g></svg>