<svg xmlns="http://www.w3.org/2000/svg" xmlns:svgjs="http://svgjs.com/svgjs" xmlns:xlink="http://www.w3.org/1999/xlink" id="SvgjsSvg1006" width="825.467" height="869.133" version="1.1"><defs id="SvgjsDefs1007"><marker id="SvgjsMarker1046" stroke-dasharray="0 0" markerHeight="12" markerUnits="userSpaceOnUse" markerWidth="16" orient="auto" refX="16" refY="6" viewBox="0 0 16 12"><path id="SvgjsPath1047" fill="#323232" stroke="#323232" stroke-width="2" d="M0,2 L14,6 L0,11 L0,2"/></marker><marker id="SvgjsMarker1050" stroke-dasharray="0 0" markerHeight="12" markerUnits="userSpaceOnUse" markerWidth="16" orient="auto" refX="16" refY="6" viewBox="0 0 16 12"><path id="SvgjsPath1051" fill="#323232" stroke="#323232" stroke-width="2" d="M0,2 L14,6 L0,11 L0,2"/></marker><marker id="SvgjsMarker1054" stroke-dasharray="0 0" markerHeight="12" markerUnits="userSpaceOnUse" markerWidth="16" orient="auto" refX="16" refY="6" viewBox="0 0 16 12"><path id="SvgjsPath1055" fill="#323232" stroke="#323232" stroke-width="2" d="M0,2 L14,6 L0,11 L0,2"/></marker><marker id="SvgjsMarker1058" stroke-dasharray="0 0" markerHeight="12" markerUnits="userSpaceOnUse" markerWidth="16" orient="auto" refX="16" refY="6" viewBox="0 0 16 12"><path id="SvgjsPath1059" fill="#323232" stroke="#323232" stroke-width="2" d="M0,2 L14,6 L0,11 L0,2"/></marker><marker id="SvgjsMarker1062" stroke-dasharray="0 0" markerHeight="12" markerUnits="userSpaceOnUse" markerWidth="16" orient="auto" refX="16" refY="6" viewBox="0 0 16 12"><path id="SvgjsPath1063" fill="#323232" stroke="#323232" stroke-width="2" d="M0,2 L14,6 L0,11 L0,2"/></marker><marker id="SvgjsMarker1066" stroke-dasharray="0 0" markerHeight="12" markerUnits="userSpaceOnUse" markerWidth="16" orient="auto" refX="16" refY="6" viewBox="0 0 16 12"><path id="SvgjsPath1067" fill="#323232" stroke="#323232" stroke-width="2" d="M0,2 L14,6 L0,11 L0,2"/></marker><marker id="SvgjsMarker1070" stroke-dasharray="0 0" markerHeight="12" markerUnits="userSpaceOnUse" markerWidth="16" orient="auto" refX="16" refY="6" viewBox="0 0 16 12"><path id="SvgjsPath1071" fill="#323232" stroke="#323232" stroke-width="2" d="M0,2 L14,6 L0,11 L0,2"/></marker><marker id="SvgjsMarker1074" stroke-dasharray="0 0" markerHeight="12" markerUnits="userSpaceOnUse" markerWidth="16" orient="auto" refX="16" refY="6" viewBox="0 0 16 12"><path id="SvgjsPath1075" fill="#323232" stroke="#323232" stroke-width="2" d="M0,2 L14,6 L0,11 L0,2"/></marker><marker id="SvgjsMarker1078" stroke-dasharray="0 0" markerHeight="12" markerUnits="userSpaceOnUse" markerWidth="16" orient="auto" refX="16" refY="6" viewBox="0 0 16 12"><path id="SvgjsPath1079" fill="#323232" stroke="#323232" stroke-width="2" d="M0,2 L14,6 L0,11 L0,2"/></marker><marker id="SvgjsMarker1082" stroke-dasharray="0 0" markerHeight="12" markerUnits="userSpaceOnUse" markerWidth="16" orient="auto" refX="16" refY="6" viewBox="0 0 16 12"><path id="SvgjsPath1083" fill="#323232" stroke="#323232" stroke-width="2" d="M0,2 L14,6 L0,11 L0,2"/></marker><marker id="SvgjsMarker1086" stroke-dasharray="0 0" markerHeight="12" markerUnits="userSpaceOnUse" markerWidth="16" orient="auto" refX="16" refY="6" viewBox="0 0 16 12"><path id="SvgjsPath1087" fill="#323232" stroke="#323232" stroke-width="2" d="M0,2 L14,6 L0,11 L0,2"/></marker><marker id="SvgjsMarker1090" stroke-dasharray="0 0" markerHeight="12" markerUnits="userSpaceOnUse" markerWidth="16" orient="auto" refX="16" refY="6" viewBox="0 0 16 12"><path id="SvgjsPath1091" fill="#323232" stroke="#323232" stroke-width="2" d="M0,2 L14,6 L0,11 L0,2"/></marker><marker id="SvgjsMarker1094" stroke-dasharray="0 0" markerHeight="12" markerUnits="userSpaceOnUse" markerWidth="16" orient="auto" refX="16" refY="6" viewBox="0 0 16 12"><path id="SvgjsPath1095" fill="#323232" stroke="#323232" stroke-width="2" d="M0,2 L14,6 L0,11 L0,2"/></marker><marker id="SvgjsMarker1098" stroke-dasharray="0 0" markerHeight="12" markerUnits="userSpaceOnUse" markerWidth="16" orient="auto" refX="16" refY="6" viewBox="0 0 16 12"><path id="SvgjsPath1099" fill="#323232" stroke="#323232" stroke-width="2" d="M0,2 L14,6 L0,11 L0,2"/></marker><marker id="SvgjsMarker1108" stroke-dasharray="0 0" markerHeight="12" markerUnits="userSpaceOnUse" markerWidth="16" orient="auto" refX="16" refY="6" viewBox="0 0 16 12"><path id="SvgjsPath1109" fill="#323232" stroke="#323232" stroke-width="2" d="M0,2 L14,6 L0,11 L0,2"/></marker><marker id="SvgjsMarker1112" stroke-dasharray="0 0" markerHeight="12" markerUnits="userSpaceOnUse" markerWidth="16" orient="auto" refX="16" refY="6" viewBox="0 0 16 12"><path id="SvgjsPath1113" fill="#323232" stroke="#323232" stroke-width="2" d="M0,2 L14,6 L0,11 L0,2"/></marker><marker id="SvgjsMarker1116" stroke-dasharray="0 0" markerHeight="12" markerUnits="userSpaceOnUse" markerWidth="16" orient="auto" refX="16" refY="6" viewBox="0 0 16 12"><path id="SvgjsPath1117" fill="#323232" stroke="#323232" stroke-width="2" d="M0,2 L14,6 L0,11 L0,2"/></marker><marker id="SvgjsMarker1120" stroke-dasharray="0 0" markerHeight="12" markerUnits="userSpaceOnUse" markerWidth="16" orient="auto" refX="16" refY="6" viewBox="0 0 16 12"><path id="SvgjsPath1121" fill="#323232" stroke="#323232" stroke-width="2" d="M0,2 L14,6 L0,11 L0,2"/></marker><marker id="SvgjsMarker1134" stroke-dasharray="0 0" markerHeight="12" markerUnits="userSpaceOnUse" markerWidth="16" orient="auto" refX="16" refY="6" viewBox="0 0 16 12"><path id="SvgjsPath1135" fill="#323232" stroke="#323232" stroke-width="2" d="M0,2 L14,6 L0,11 L0,2"/></marker><marker id="SvgjsMarker1170" stroke-dasharray="0 0" markerHeight="12" markerUnits="userSpaceOnUse" markerWidth="16" orient="auto" refX="16" refY="6" viewBox="0 0 16 12"><path id="SvgjsPath1171" fill="#323232" stroke="#323232" stroke-width="2" d="M0,2 L14,6 L0,11 L0,2"/></marker></defs><g id="SvgjsG1008" transform="translate(102.03997802734375,25.008010864257812)"><path id="SvgjsPath1009" fill="#0c6" fill-opacity="1" stroke="rgba(50,50,50,1)" stroke-width="2" d="M 0 35C 0 -11.666666666666666 70 -11.666666666666666 70 35C 70 81.66666666666667 0 81.66666666666667 0 35Z"/><g id="SvgjsG1010"><text id="SvgjsText1011" width="50" y="25.55" fill="#323232" align="middle" anchor="middle" family="微软雅黑" font-family="微软雅黑" font-size="13" font-weight="400" opacity="1" size="13" text-anchor="middle" transform="rotate(0)" weight="400"><tspan id="SvgjsTspan1012" x="35" dy="16"><tspan id="SvgjsTspan1013">input 0</tspan></tspan></text></g></g><g id="SvgjsG1014" transform="translate(346.03997802734375,91.00801086425781)"><path id="SvgjsPath1015" fill="#0c6" fill-opacity="1" stroke="rgba(50,50,50,1)" stroke-width="2" d="M 0 35C 0 -11.666666666666666 70 -11.666666666666666 70 35C 70 81.66666666666667 0 81.66666666666667 0 35Z"/><g id="SvgjsG1016"><text id="SvgjsText1017" width="50" y="25.55" fill="#323232" align="middle" anchor="middle" family="微软雅黑" font-family="微软雅黑" font-size="13" font-weight="400" opacity="1" size="13" text-anchor="middle" transform="rotate(0)" weight="400"><tspan id="SvgjsTspan1018" x="35" dy="16"><tspan id="SvgjsTspan1019">input 1</tspan></tspan></text></g></g><g id="SvgjsG1020" transform="translate(102.03997802734375,247.0080108642578)"><path id="SvgjsPath1021" fill="#ff0" fill-opacity="1" stroke="rgba(50,50,50,1)" stroke-width="2" d="M 0 35C 0 -11.666666666666666 70 -11.666666666666666 70 35C 70 81.66666666666667 0 81.66666666666667 0 35Z"/><g id="SvgjsG1022"><text id="SvgjsText1023" width="50" y="25.55" fill="#323232" align="middle" anchor="middle" family="微软雅黑" font-family="微软雅黑" font-size="13" font-weight="400" opacity="1" size="13" text-anchor="middle" transform="rotate(0)" weight="400"><tspan id="SvgjsTspan1024" x="35" dy="16"><tspan id="SvgjsTspan1025">node 0</tspan></tspan></text></g></g><g id="SvgjsG1026" transform="translate(346.03997802734375,386.24000549316406)"><path id="SvgjsPath1027" fill="#ff3" fill-opacity="1" stroke="rgba(50,50,50,1)" stroke-width="2" d="M 0 35C 0 -11.666666666666666 70 -11.666666666666666 70 35C 70 81.66666666666667 0 81.66666666666667 0 35Z"/><g id="SvgjsG1028"><text id="SvgjsText1029" width="50" y="25.55" fill="#323232" align="middle" anchor="middle" family="微软雅黑" font-family="微软雅黑" font-size="13" font-weight="400" opacity="1" size="13" text-anchor="middle" transform="rotate(0)" weight="400"><tspan id="SvgjsTspan1030" x="35" dy="16"><tspan id="SvgjsTspan1031">node 1</tspan></tspan></text></g></g><g id="SvgjsG1032" transform="translate(102.03997802734375,503.24000549316406)"><path id="SvgjsPath1033" fill="#ff3" fill-opacity="1" stroke="rgba(50,50,50,1)" stroke-width="2" d="M 0 35C 0 -11.666666666666666 70 -11.666666666666666 70 35C 70 81.66666666666667 0 81.66666666666667 0 35Z"/><g id="SvgjsG1034"><text id="SvgjsText1035" width="50" y="25.55" fill="#323232" align="middle" anchor="middle" family="微软雅黑" font-family="微软雅黑" font-size="13" font-weight="400" opacity="1" size="13" text-anchor="middle" transform="rotate(0)" weight="400"><tspan id="SvgjsTspan1036" x="35" dy="16"><tspan id="SvgjsTspan1037">node 2</tspan></tspan></text></g></g><g id="SvgjsG1038" transform="translate(346.03997802734375,660.2400054931641)"><path id="SvgjsPath1039" fill="#ff3" fill-opacity="1" stroke="rgba(50,50,50,1)" stroke-width="2" d="M 0 35C 0 -11.666666666666666 70 -11.666666666666666 70 35C 70 81.66666666666667 0 81.66666666666667 0 35Z"/><g id="SvgjsG1040"><text id="SvgjsText1041" width="50" y="25.55" fill="#323232" align="middle" anchor="middle" family="微软雅黑" font-family="微软雅黑" font-size="13" font-weight="400" opacity="1" size="13" text-anchor="middle" transform="rotate(0)" weight="400"><tspan id="SvgjsTspan1042" x="35" dy="16"><tspan id="SvgjsTspan1043">node 3</tspan></tspan></text></g></g><g id="SvgjsG1044"><path id="SvgjsPath1045" fill="none" stroke="#323232" stroke-dasharray="8 5" stroke-width="2" marker-end="url(#SvgjsMarker1046)" d="M137.03997802734375 95.00801086425781C 142.3390471864014 155.57664850823596 142.3390471864014 186.43937322027966 137.03997802734375 247.0080108642578"/></g><g id="SvgjsG1048"><path id="SvgjsPath1049" fill="none" stroke="#323232" stroke-dasharray="8 5" stroke-width="2" marker-end="url(#SvgjsMarker1050)" d="M137.03997802734375 95.00801086425781C 150.28545233965042 246.404475028805 394.2854523396504 234.84354132861688 381.03997802734375 386.24000549316406"/></g><g id="SvgjsG1052"><path id="SvgjsPath1053" fill="none" stroke="#323232" stroke-dasharray="8 5" stroke-width="2" marker-end="url(#SvgjsMarker1054)" d="M381.03997802734375 161.0080108642578C 388.89208274031125 250.75797842023576 388.89208274031137 296.4900379371861 381.03997802734375 386.24000549316406"/></g><g id="SvgjsG1056"><path id="SvgjsPath1057" fill="none" stroke="#323232" stroke-dasharray="8 5" stroke-width="2" marker-end="url(#SvgjsMarker1058)" d="M381.03997802734375 161.0080108642578C 390.059279443249 264.0990977824248 146.05927944324907 143.91692394609086 137.03997802734375 247.0080108642578"/></g><g id="SvgjsG1060"><path id="SvgjsPath1061" fill="none" stroke="#323232" stroke-dasharray="8 5" stroke-width="2" marker-end="url(#SvgjsMarker1062)" d="M137.03997802734375 317.0080108642578C 143.53245315344782 391.21734113000457 143.53245315344788 429.0306752274173 137.03997802734375 503.24000549316406"/></g><g id="SvgjsG1064"><path id="SvgjsPath1065" fill="none" stroke="#323232" stroke-dasharray="8 5" stroke-width="2" marker-end="url(#SvgjsMarker1066)" d="M137.03997802734375 317.0080108642578C 145.8821637569588 418.0746562244878 389.8821637569588 285.1733601329341 381.03997802734375 386.24000549316406"/></g><g id="SvgjsG1068"><path id="SvgjsPath1069" fill="none" stroke="#323232" stroke-dasharray="8 5" stroke-width="2" marker-end="url(#SvgjsMarker1070)" d="M137.03997802734375 573.2400054931641C 146.07092807311756 676.4642368599839 390.07092807311756 557.0157741263442 381.03997802734375 660.2400054931641"/></g><g id="SvgjsG1072"><path id="SvgjsPath1073" fill="none" stroke="#323232" stroke-dasharray="8 5" stroke-width="2" marker-end="url(#SvgjsMarker1074)" d="M381.03997802734375 456.24000549316406C 388.1518866355526 537.5294928574505 388.1518866355527 578.9505181288777 381.03997802734375 660.2400054931641"/></g><g id="SvgjsG1076"><path id="SvgjsPath1077" fill="none" stroke="#323232" stroke-dasharray="8 5" stroke-width="2" marker-end="url(#SvgjsMarker1078)" d="M137.03997802734375 317.0080108642578C 151.72127748132198 484.81603149573016 395.721277481322 492.4319848616917 381.03997802734375 660.2400054931641"/></g><g id="SvgjsG1080"><path id="SvgjsPath1081" fill="none" stroke="#323232" stroke-dasharray="8 5" stroke-width="2" marker-end="url(#SvgjsMarker1082)" d="M381.03997802734375 456.24000549316406C 389.70275028689764 555.2559455067756 145.7027502868977 404.22406547955256 137.03997802734375 503.24000549316406"/></g><g id="SvgjsG1084"><path id="SvgjsPath1085" fill="none" stroke="#323232" stroke-dasharray="8 5" stroke-width="2" marker-end="url(#SvgjsMarker1086)" d="M381.03997802734375 161.0080108642578C 395.6928772148526 328.491414964573 151.69287721485261 335.7566013928489 137.03997802734375 503.24000549316406"/></g><g id="SvgjsG1088"><path id="SvgjsPath1089" fill="none" stroke="#323232" stroke-dasharray="8 5" stroke-width="2" marker-end="url(#SvgjsMarker1090)" d="M137.03997802734375 95.00801086425781C 24.999984741210938 260.9920015335083 77.99998474121094 362.9920015335083 137.03997802734375 503.24000549316406"/></g><g id="SvgjsG1092"><path id="SvgjsPath1093" fill="none" stroke="#323232" stroke-dasharray="8 5" stroke-width="2" marker-end="url(#SvgjsMarker1094)" d="M137.03997802734375 95.00801086425781C 158.5029026859753 340.33036228264245 402.5029026859754 414.9176540747794 381.03997802734375 660.2400054931641"/></g><g id="SvgjsG1096"><path id="SvgjsPath1097" fill="none" stroke="#323232" stroke-dasharray="8 5" stroke-width="2" marker-end="url(#SvgjsMarker1098)" d="M381.03997802734375 161.0080108642578C 474.99998474121094 357.7520065307617 436.99998474121094 463.7520065307617 381.03997802734375 660.2400054931641"/></g><g id="SvgjsG1100" transform="translate(213.99998474121094,774.1439895629883)"><path id="SvgjsPath1101" fill="#c9f" fill-opacity="1" stroke="rgba(50,50,50,1)" stroke-width="2" d="M 0 35C 0 -11.666666666666666 70 -11.666666666666666 70 35C 70 81.66666666666667 0 81.66666666666667 0 35Z"/><g id="SvgjsG1102"><text id="SvgjsText1103" width="50" y="25.55" fill="#323232" align="middle" anchor="middle" family="微软雅黑" font-family="微软雅黑" font-size="13" font-weight="400" opacity="1" size="13" text-anchor="middle" transform="rotate(0)" weight="400"><tspan id="SvgjsTspan1104" x="35" dy="16"><tspan id="SvgjsTspan1105">output</tspan></tspan></text></g></g><g id="SvgjsG1106"><path id="SvgjsPath1107" fill="none" stroke="#323232" stroke-width="2" marker-end="url(#SvgjsMarker1108)" d="M137.03997802734375 317.0080108642578C 153.44780421895462 504.5503224089872 265.40781093282186 586.6016780182589 248.99998474121094 774.1439895629883"/></g><g id="SvgjsG1110"><path id="SvgjsPath1111" fill="none" stroke="#323232" stroke-width="2" marker-end="url(#SvgjsMarker1112)" d="M137.03997802734375 573.2400054931641C 145.05811339639388 664.8877121320274 257.01812011026107 682.4962829241249 248.99998474121094 774.1439895629883"/></g><g id="SvgjsG1114"><path id="SvgjsPath1115" fill="none" stroke="#323232" stroke-width="2" marker-end="url(#SvgjsMarker1116)" d="M381.03997802734375 456.24000549316406C 393.0407891056441 593.409903793695 261.0007958195113 636.9740912624574 248.99998474121094 774.1439895629883"/></g><g id="SvgjsG1118"><path id="SvgjsPath1119" fill="none" stroke="#323232" stroke-width="2" marker-end="url(#SvgjsMarker1120)" d="M381.03997802734375 730.2400054931641C 385.89099114909015 785.6873391961069 253.85099786295734 718.6966558600454 248.99998474121094 774.1439895629883"/></g><g id="SvgjsG1122" transform="translate(543.471981048584,627.2400054931641)"><path id="SvgjsPath1123" fill="none" stroke="none" d="M 0 0L 255 0L 255 33L 0 33Z"/><g id="SvgjsG1124"><text id="SvgjsText1125" width="255" y="-1.95" fill="#323232" align="top" anchor="start" family="微软雅黑" font-family="微软雅黑" font-size="13" font-weight="400" opacity="1" size="13" text-anchor="start" transform="rotate(0)" weight="400"><tspan id="SvgjsTspan1126" x="0" dy="16"><tspan id="SvgjsTspan1127">choose an operation from AvgPool, </tspan></tspan><tspan id="SvgjsTspan1128" x="0" dy="16"><tspan id="SvgjsTspan1129">MaxPool, 3x3 SepConv, 5x5SepConv, </tspan></tspan><tspan id="SvgjsTspan1130" x="0" dy="16"><tspan id="SvgjsTspan1131">3x3DilConv, 5x5DilConv, SkipConnect</tspan></tspan></text></g></g><g id="SvgjsG1132"><path id="SvgjsPath1133" fill="none" stroke="#323232" stroke-dasharray="8 5" stroke-width="2" marker-end="url(#SvgjsMarker1134)" d="M473.471981048584 655.6359786987305L523.471981048584 655.6359786987305"/></g><g id="SvgjsG1136" transform="translate(484.471981048584,682.1359786987305)"><path id="SvgjsPath1137" fill="#0c0" fill-opacity="1" stroke="rgba(50,50,50,1)" stroke-width="2" d="M 0 13.104026794433594C 0 -4.368008931477864 29 -4.368008931477864 29 13.104026794433594C 29 30.57606252034505 0 30.57606252034505 0 13.104026794433594Z"/></g><g id="SvgjsG1140" transform="translate(484.471981048584,720.2400054931641)"><path id="SvgjsPath1141" fill="#ff0" fill-opacity="1" stroke="rgba(50,50,50,1)" stroke-width="2" d="M 0 13.104026794433594C 0 -4.368008931477864 29 -4.368008931477864 29 13.104026794433594C 29 30.57606252034505 0 30.57606252034505 0 13.104026794433594Z"/></g><g id="SvgjsG1144" transform="translate(484.471981048584,760.2400054931641)"><path id="SvgjsPath1145" fill="#c9f" fill-opacity="1" stroke="rgba(50,50,50,1)" stroke-width="2" d="M 0 13.104026794433594C 0 -4.368008931477864 29 -4.368008931477864 29 13.104026794433594C 29 30.57606252034505 0 30.57606252034505 0 13.104026794433594Z"/></g><g id="SvgjsG1148" transform="translate(544.471981048584,684.4480590820312)"><path id="SvgjsPath1149" fill="none" stroke="none" d="M 0 0L 232 0L 232 35.79194641113281L 0 35.79194641113281Z"/><g id="SvgjsG1150"><text id="SvgjsText1151" width="232" y="-1.95" fill="#323232" align="top" anchor="start" family="微软雅黑" font-family="微软雅黑" font-size="13" font-weight="400" opacity="1" size="13" text-anchor="start" transform="rotate(0)" weight="400"><tspan id="SvgjsTspan1152" x="0" dy="16"><tspan id="SvgjsTspan1153">results of previous layers as input</tspan></tspan></text></g></g><g id="SvgjsG1154" transform="translate(544.471981048584,720.2400054931641)"><path id="SvgjsPath1155" fill="none" stroke="none" d="M 0 0L 251 0L 251 37.79194641113281L 0 37.79194641113281Z"/><g id="SvgjsG1156"><text id="SvgjsText1157" width="251" y="-1.95" fill="#323232" align="top" anchor="start" family="微软雅黑" font-family="微软雅黑" font-size="13" font-weight="400" opacity="1" size="13" text-anchor="start" transform="rotate(0)" weight="400"><tspan id="SvgjsTspan1158" x="0" dy="16"><tspan id="SvgjsTspan1159">accept two operations from all inputs, </tspan></tspan><tspan id="SvgjsTspan1160" x="0" dy="16"><tspan id="SvgjsTspan1161">then add the results as output</tspan></tspan></text></g></g><g id="SvgjsG1162" transform="translate(545.471981048584,763.2400054931641)"><path id="SvgjsPath1163" fill="none" stroke="none" d="M 0 0L 251 0L 251 37.79194641113281L 0 37.79194641113281Z"/><g id="SvgjsG1164"><text id="SvgjsText1165" width="251" y="-1.95" fill="#323232" align="top" anchor="start" family="微软雅黑" font-family="微软雅黑" font-size="13" font-weight="400" opacity="1" size="13" text-anchor="start" transform="rotate(0)" weight="400"><tspan id="SvgjsTspan1166" x="0" dy="16"><tspan id="SvgjsTspan1167">concat all inputs in channels</tspan></tspan></text></g></g><g id="SvgjsG1168"><path id="SvgjsPath1169" fill="none" stroke="#323232" stroke-width="2" marker-end="url(#SvgjsMarker1170)" d="M472.471981048584 599.6359786987305L522.471981048584 599.6359786987305"/></g><g id="SvgjsG1172" transform="translate(545.471981048584,586.1359786987305)"><path id="SvgjsPath1173" fill="none" stroke="none" d="M 0 0L 255 0L 255 33L 0 33Z"/><g id="SvgjsG1174"><text id="SvgjsText1175" width="255" y="-.95" fill="#323232" align="middle" anchor="start" family="微软雅黑" font-family="微软雅黑" font-size="13" font-weight="400" opacity="1" size="13" text-anchor="start" transform="rotate(0)" weight="400"><tspan id="SvgjsTspan1176" x="0" dy="16"><tspan id="SvgjsTspan1177">pass the result directly to the output </tspan></tspan><tspan id="SvgjsTspan1178" x="0" dy="16"><tspan id="SvgjsTspan1179">node</tspan></tspan></text></g></g></svg>